<?xml version="1.0" encoding="UTF-8"?>
<svg id="Layer_1" data-name="Layer 1" xmlns="http://www.w3.org/2000/svg" viewBox="0 0 314.7 313.58">
  <path d="M314.7,174.76l-26.17-7.38-.73-.21v-20.76l.73-.21,26.17-7.37-1.54-8.92-1.54-8.91-27.55,1.85-.75.05-.26-.71-3.23-9.06-3.24-9.06-.26-.71.62-.44,22.27-15.87-3.7-6.54-5.2-9.21-26.06,11.32-.69.3-.48-.59-7.18-8.71-5.05-6.12-.48-.58.43-.63,15.86-23.06-5.22-4.48-8.52-7.3-21.25,20.04-.54.52-.65-.38-10.76-6.33-5.79-3.41-.65-.38.18-.73,7.09-27.94-8.48-3.16-8.48-3.15-13.25,26.5-.33.67-.74-.13-12.17-2.18-6.71-1.21-.74-.13-.08-.75-3.18-29.3h-18.09l-3.19,29.3-.08.75-.73.13-6.72,1.21-12.17,2.18-.74.13-.33-.67-13.25-26.5-8.48,3.15-8.48,3.16,7.09,27.94.18.73-.64.38-4.74,2.79-11.82,6.95-.64.38-.55-.52-21.25-20.04-7.34,6.29-6.4,5.49,15.86,23.06.43.63-.48.58-6.11,7.42-6.11,7.41-.48.59-.7-.3-26.05-11.32-4.82,8.51-4.09,7.24,22.27,15.87.62.44-.26.71-3.23,9.06-3.24,9.06-.26.71-.75-.05-27.55-1.85-1.54,8.91-1.54,8.92,26.17,7.37.73.21v20.76l-.73.21-26.17,7.38,1.54,8.91,1.54,8.91,27.55-1.85.75-.05.26.71,3.24,9.06,3.23,9.06.26.71-.62.44-22.27,15.87,4.09,7.24,4.82,8.51,26.05-11.32.7-.3.48.59.18.22,10.78,13.08,1.26,1.53.48.59-.43.62-15.86,23.07,7.46,6.39,6.28,5.38,21.25-20.04.55-.51.64.38,11.82,6.94,4.74,2.79.64.38-.18.73-7.09,27.95,8.48,3.15,8.48,3.15,13.25-26.5.33-.67.74.13,12.17,2.19,6.72,1.2.73.13.08.75,3.19,29.3h18.09l3.18-29.3.08-.75.74-.13,6.71-1.2,12.17-2.19.74-.13.33.67,13.25,26.5,8.48-3.15,8.48-3.15-7.09-27.95-.18-.73.65-.38,5.79-3.41,10.76-6.32.65-.38.54.51,21.25,20.04,6.87-5.89,6.87-5.88-15.86-23.07-.43-.62.48-.59,5.93-7.19,6.3-7.64.48-.59.69.3,26.06,11.32,5.2-9.21,3.7-6.54-22.27-15.87-.62-.44.26-.71,3.24-9.06,3.23-9.06.26-.71.75.05,27.55,1.85,1.54-8.91,1.54-8.91ZM237.96,237.4c-21.53,21.53-50.16,33.39-80.61,33.39s-59.08-11.86-80.61-33.39-33.39-50.16-33.39-80.61,11.86-59.08,33.39-80.61,50.16-33.39,80.61-33.39,59.08,11.86,80.61,33.39,33.39,50.16,33.39,80.61-11.86,59.08-33.39,80.61Z" fill="#e47f3a"/>
  <g>
    <path d="M157.35,42.29c-63.13,0-114.5,51.36-114.5,114.5s51.37,114.5,114.5,114.5,114.5-51.36,114.5-114.5-51.36-114.5-114.5-114.5ZM237.96,237.4c-21.53,21.53-50.16,33.39-80.61,33.39s-59.08-11.86-80.61-33.39-33.39-50.16-33.39-80.61,11.86-59.08,33.39-80.61,50.16-33.39,80.61-33.39,59.08,11.86,80.61,33.39,33.39,50.16,33.39,80.61-11.86,59.08-33.39,80.61Z" fill="#fff"/>
    <path d="M157.35,41.79c-63.51,0-115,51.49-115,115s51.49,115,115,115,115-51.49,115-115-51.49-115-115-115ZM157.35,270.79c-30.45,0-59.08-11.86-80.61-33.39s-33.39-50.16-33.39-80.61,11.86-59.08,33.39-80.61,50.16-33.39,80.61-33.39,59.08,11.86,80.61,33.39,33.39,50.16,33.39,80.61-11.86,59.08-33.39,80.61-50.16,33.39-80.61,33.39Z"/>
    <path d="M129.34,46.24c9.05-2.28,18.44-3.45,28.01-3.45,30.45,0,59.08,11.86,80.61,33.39s33.39,50.16,33.39,80.61-11.86,59.08-33.39,80.61-50.16,33.39-80.61,33.39-59.08-11.86-80.61-33.39-33.39-50.16-33.39-80.61,11.86-59.08,33.39-80.61c14.76-14.76,32.86-24.98,52.6-29.94" fill="#fff"/>
  </g>
</svg>