<?xml version="1.0" encoding="UTF-8"?>
<svg id="Layer_1" data-name="Layer 1" xmlns="http://www.w3.org/2000/svg" viewBox="0 0 318.11 316.58">
  <g>
    <polygon points="149.56 315.58 146.29 285.46 126.67 281.94 113.05 309.18 95.26 302.56 102.54 273.81 85.34 263.7 63.49 284.3 49.07 271.94 65.4 248.19 52.7 232.77 25.88 244.42 16.53 227.89 39.48 211.54 32.75 192.7 4.37 194.61 1.14 175.9 28.11 168.3 28.11 148.29 1.14 140.69 4.37 121.97 32.75 123.88 39.48 105.05 16.53 88.69 25.88 72.16 52.7 83.81 65.4 68.39 49.07 44.64 63.49 32.28 85.34 52.89 102.54 42.77 95.26 14.02 113.05 7.41 126.67 34.65 146.29 31.12 149.56 1 168.55 1 171.82 31.12 191.45 34.65 205.06 7.41 222.86 14.02 215.57 42.77 232.77 52.89 254.63 32.28 269.04 44.64 252.72 68.39 265.42 83.81 292.24 72.16 301.58 88.69 278.64 105.05 285.37 123.88 313.74 121.97 316.98 140.69 290.01 148.29 290.01 168.3 316.98 175.9 313.74 194.61 285.37 192.7 278.64 211.54 301.58 227.89 292.24 244.42 265.42 232.77 252.72 248.19 269.04 271.94 254.63 284.3 232.77 263.7 215.57 273.81 222.86 302.56 205.06 309.18 191.45 281.94 171.82 285.46 168.55 315.58 149.56 315.58" fill="#e47f3a"/>
    <path d="M168.1,1.5l3.18,29.3.08.74.74.13,6.72,1.21,12.17,2.19.74.13.33-.67,13.25-26.5,8.48,3.15,8.48,3.15-7.08,27.95-.18.73.65.38,5.79,3.4,10.76,6.33.65.38.55-.51,21.25-20.04,8.52,7.3,5.22,4.47-15.86,23.07-.43.62.48.58,5.05,6.12,7.18,8.71.48.58.69-.3,26.06-11.32,5.21,9.21,3.7,6.54-22.27,15.87-.62.44.25.71,3.24,9.06,3.24,9.06.25.71.75-.05,27.55-1.85,1.54,8.91,1.54,8.91-26.17,7.38-.73.21v20.76l.73.21,26.17,7.38-1.54,8.91-1.54,8.91-27.55-1.85-.75-.05-.25.71-3.24,9.06-3.24,9.06-.25.71.62.44,22.27,15.87-3.7,6.54-5.21,9.21-26.06-11.32-.69-.3-.48.58-6.3,7.65-5.92,7.19-.48.58.43.62,15.86,23.07-6.87,5.89-6.87,5.89-21.25-20.04-.55-.51-.65.38-10.76,6.33-5.79,3.4-.65.38.18.73,7.08,27.95-8.48,3.15-8.48,3.15-13.25-26.5-.33-.67-.74.13-12.17,2.19-6.72,1.21-.74.13-.08.74-3.18,29.3h-18.09l-3.18-29.3-.08-.74-.74-.13-6.72-1.21-12.17-2.19-.74-.13-.33.67-13.25,26.5-8.48-3.15-8.48-3.15,7.08-27.95.18-.73-.65-.38-4.74-2.79-11.81-6.95-.65-.38-.55.51-21.25,20.04-6.28-5.38-7.46-6.39,15.86-23.07.43-.62-.48-.58-1.26-1.53-10.78-13.08-.18-.22-.48-.58-.69.3-26.06,11.32-4.81-8.51-4.09-7.23,22.27-15.87.62-.44-.25-.71-3.24-9.06-3.24-9.06-.25-.71-.75.05-27.55,1.85-1.54-8.91-1.54-8.91,26.17-7.38.73-.21v-20.76l-.73-.21-26.17-7.38,1.54-8.91,1.54-8.91,27.55,1.85.75.05.25-.71,3.24-9.06,3.24-9.06.25-.71-.62-.44-22.27-15.87,4.09-7.23,4.81-8.51,26.06,11.32.69.3.48-.58,6.11-7.42,6.11-7.42.48-.58-.43-.62-15.86-23.07,6.4-5.49,7.33-6.29,21.25,20.04.55.51.65-.38,11.81-6.95,4.74-2.79.65-.38-.18-.73-7.08-27.95,8.48-3.15,8.48-3.15,13.25,26.5.33.67.74-.13,12.17-2.19,6.72-1.21.74-.13.08-.74,3.18-29.3h18.09M169,.5h-19.88l-3.28,30.2c-9.82,1.76-9.07,1.63-18.89,3.39l-13.65-27.3c-11.22,4.17-7.42,2.76-18.64,6.93l7.3,28.82c-8.62,5.07-7.93,4.66-16.55,9.73l-21.91-20.65c-9.1,7.8-6,5.14-15.1,12.94l16.37,23.81c-6.39,7.75-5.84,7.08-12.22,14.84l-26.89-11.68c-5.91,10.45-3.88,6.86-9.79,17.32l23,16.4c-3.39,9.49-3.08,8.63-6.48,18.12l-28.45-1.91c-2.04,11.84-1.34,7.76-3.38,19.6l27.04,7.62v19.25l-27.04,7.62c2.04,11.84,1.34,7.76,3.38,19.6l28.45-1.91c3.39,9.49,3.08,8.63,6.48,18.12l-23,16.4c5.91,10.45,3.88,6.86,9.79,17.32l26.89-11.68c6.39,7.75,5.84,7.08,12.22,14.84l-16.37,23.81c9.1,7.8,6,5.14,15.1,12.94l21.91-20.65c8.62,5.07,7.93,4.66,16.55,9.73l-7.3,28.82c11.22,4.17,7.42,2.76,18.64,6.93l13.65-27.3c9.82,1.76,9.07,1.63,18.89,3.39l3.28,30.2h19.88l3.28-30.2c9.82-1.76,9.07-1.63,18.89-3.39l13.65,27.3c11.22-4.17,7.42-2.76,18.64-6.93l-7.3-28.82c8.62-5.07,7.93-4.66,16.55-9.73l21.91,20.65c9.1-7.8,6-5.14,15.1-12.94l-16.37-23.81c6.39-7.75,5.84-7.08,12.22-14.84l26.89,11.68c5.91-10.45,3.88-6.86,9.79-17.32l-23-16.4c3.39-9.49,3.08-8.63,6.48-18.12l28.45,1.91c2.04-11.84,1.34-7.76,3.38-19.6l-27.04-7.62v-19.25l27.04-7.62c-2.04-11.84-1.34-7.76-3.38-19.6l-28.45,1.91c-3.39-9.49-3.08-8.63-6.48-18.12l23-16.4c-5.91-10.45-3.88-6.86-9.79-17.32l-26.89,11.68c-6.39-7.75-5.84-7.08-12.22-14.84l16.37-23.81c-9.1-7.8-6-5.14-15.1-12.94l-21.91,20.65c-8.62-5.07-7.93-4.66-16.55-9.73l7.3-28.82c-11.22-4.17-7.42-2.76-18.64-6.93l-13.65,27.3c-9.82-1.76-9.07-1.63-18.89-3.39l-3.28-30.2h0Z"/>
  </g>
  <g>
    <path d="M159.06,272.79c-63.14,0-114.5-51.36-114.5-114.5s51.36-114.5,114.5-114.5,114.5,51.36,114.5,114.5-51.36,114.5-114.5,114.5Z" fill="#fff"/>
    <path d="M159.06,44.29c30.45,0,59.08,11.86,80.61,33.39,21.53,21.53,33.39,50.16,33.39,80.61s-11.86,59.08-33.39,80.61c-21.53,21.53-50.16,33.39-80.61,33.39s-59.08-11.86-80.61-33.39c-21.53-21.53-33.39-50.16-33.39-80.61s11.86-59.08,33.39-80.61c21.53-21.53,50.16-33.39,80.61-33.39M159.06,43.29c-63.51,0-115,51.49-115,115s51.49,115,115,115,115-51.49,115-115-51.49-115-115-115h0Z"/>
  </g>
</svg>